<svg width="24" height="24" viewBox="0 0 24 24" fill="none" xmlns="http://www.w3.org/2000/svg">
<path fill-rule="evenodd" clip-rule="evenodd" d="M16.6325 15.8159C16.4028 16.0547 16.023 16.0622 15.7841 15.8325L12.1841 12.4325C12.0665 12.3194 12 12.1632 12 12C12 11.8368 12.0665 11.6806 12.1841 11.5675L15.7841 8.1675C16.023 7.93782 16.4028 7.94527 16.6325 8.18413C16.8622 8.423 16.8547 8.80282 16.6159 9.0325L13.4657 12L16.6159 14.9675C16.8547 15.1972 16.8622 15.577 16.6325 15.8159ZM11.8325 15.8159C11.6028 16.0547 11.223 16.0622 10.9841 15.8325L7.38412 12.4325C7.26647 12.3194 7.19999 12.1632 7.19999 12C7.19999 11.8368 7.26647 11.6806 7.38412 11.5675L10.9841 8.1675C11.223 7.93782 11.6028 7.94527 11.8325 8.18413C12.0622 8.423 12.0547 8.80282 11.8159 9.0325L8.66565 12L11.8159 14.9675C12.0547 15.1972 12.0622 15.577 11.8325 15.8159Z" fill="#999999"/>
</svg>
