<svg width="24" height="24" viewBox="0 0 24 24" fill="none" xmlns="http://www.w3.org/2000/svg">
<path d="M7.38415 14.9675C7.14528 15.1972 7.13784 15.577 7.36751 15.8159C7.59719 16.0547 7.97702 16.0622 8.21588 15.8325L11.8159 12.4325C11.9335 12.3194 12 12.1632 12 12C12 11.8368 11.9335 11.6806 11.8159 11.5675L8.21588 8.1675C7.97702 7.93782 7.59719 7.94527 7.36751 8.18414C7.13784 8.423 7.14528 8.80282 7.38415 9.0325L10.5343 12L7.38415 14.9675Z" fill="#999999"/>
<path d="M12.1841 14.9675C11.9453 15.1972 11.9378 15.577 12.1675 15.8159C12.3972 16.0547 12.777 16.0622 13.0159 15.8325L16.6159 12.4325C16.7335 12.3194 16.8 12.1632 16.8 12C16.8 11.8368 16.7335 11.6806 16.6159 11.5675L13.0159 8.1675C12.777 7.93782 12.3972 7.94527 12.1675 8.18414C11.9378 8.423 11.9453 8.80282 12.1841 9.0325L15.3343 12L12.1841 14.9675Z" fill="#999999"/>
</svg>
